HIERARCHY
ROOT Hips
{
	OFFSET 0.00000 0.00000 0.00000
	CHANNELS 6 Xposition Yposition Zposition Yrotation Zrotation Xrotation 
	JOINT Lumbar
	{
		OFFSET 0 0 0
		CHANNELS 3 Zrotation Xrotation Yrotation
		JOINT Neck
		{
			OFFSET 0.00 0.2701 0.00
			CHANNELS 3 Zrotation Xrotation Yrotation
			End Site
			{
				OFFSET 0.00 0.1379 0.00
			}
		}
		JOINT RightShoulder
		{
			OFFSET 0.0119 0.2289 0.1181
			CHANNELS 3 Zrotation Xrotation Yrotation
			JOINT RightElbow
			{
				OFFSET 0.00 -0.1475 0.00
				CHANNELS 2 Zrotation Yrotation
				JOINT RightWrist
				{
					OFFSET 0.00 -0.1605 0.00
					CHANNELS 2 Zrotation Xrotation
					End Site
					{
						OFFSET 0.0040 -0.1068 0.0006
					}
				}
			}
		}
		JOINT LeftShoulder
		{
			OFFSET 0.0119 0.2289 -0.1181
			CHANNELS 3 Zrotation Xrotation Yrotation
			JOINT LeftElbow
			{
				OFFSET 0.00 -0.1475 0.00
				CHANNELS 2 Zrotation Yrotation
				JOINT LeftWrist
				{
					OFFSET 0.00 -0.1605 0.00
					CHANNELS 2 Zrotation Xrotation
					End Site
					{
						OFFSET 0.0040 -0.1068 -0.0006
					}
				}
			}
		}
	}
	JOINT RightHip
	{
		OFFSET 0.0316 -0.0424 0.0458
		CHANNELS 3 Zrotation Xrotation Yrotation
		JOINT RightKnee
		{
			OFFSET 0.00 -0.2438 0.00
			CHANNELS 1 Zrotation
			JOINT RightAnkle
			{
				OFFSET 0.00 -0.2449 0.00
				CHANNELS 3 Zrotation Xrotation Yrotation
				End Site
				{
					OFFSET 0.1237 -0.0542 0.0051
				}
			}
		}
	}
	JOINT LeftHip
	{
		OFFSET 0.0316 -0.0424 -0.0458
		CHANNELS 3 Zrotation Xrotation Yrotation
		JOINT LeftKnee
		{
			OFFSET 0.00 -0.2438 0.00
			CHANNELS 1 Zrotation
			JOINT LeftAnkle
			{
				OFFSET 0.00 -0.2449 0.00
				CHANNELS 3 Zrotation Xrotation Yrotation
				End Site
				{
					OFFSET 0.1237 -0.0542 -0.0051
				}
			}
		}
	}
}
MOTION
Frames: 35
Frame Time: 0.02
-0 0.57926 -0 191.91288 0 -6.7131 8.46832 7.01636 -4.59348 -31.88634 6.5438 4.29938 25.69444 -21.19511 8.68044 11.32417 81.72176 0.64795 -2.6416 26.20465 6.09716 -12.66628 9.24121 -80.78658 -1.28089 1.34851 -5.87174 7.01893 -6.78185 -5.72907 -12.32831 -2.31255 -9.27511 -9.81043 8.80295 14.52459 0.11472 -3.92138 3.31384 5.94972
0.00012 0.57926 0.00031 191.96213 0 -6.67732 8.44498 6.9896 -4.59613 -31.89317 6.52551 4.25488 25.67943 -21.19481 8.62528 11.30098 81.72367 0.66317 -2.61193 26.22835 6.0903 -12.67511 9.25428 -80.80038 -1.28294 1.35521 -5.87709 6.95945 -6.80565 -5.7311 -12.30922 -2.33533 -9.2802 -9.77224 8.74932 14.3061 0.06975 -3.92164 3.34366 6.12352
0.00023 0.57926 0.00062 192.01206 0 -6.64148 8.42157 6.96275 -4.59909 -31.90039 6.50789 4.21071 25.66495 -21.19543 8.5701 11.27782 81.72574 0.67803 -2.5824 26.25256 6.08256 -12.68434 9.2674 -80.81412 -1.28498 1.362 -5.88259 6.89975 -6.82997 -5.7329 -12.29031 -2.35792 -9.28528 -9.73373 8.6955 14.08863 0.02445 -3.92167 3.37326 6.29583
0.00035 0.57925 0.00094 192.06445 0 -6.60504 8.39794 6.9356 -4.60322 -31.90818 6.49165 4.16656 25.65139 -21.1981 8.51373 11.25454 81.72886 0.69281 -2.55292 26.27776 6.07277 -12.69442 9.28075 -80.82765 -1.28693 1.36905 -5.88892 6.83906 -6.8563 -5.73354 -12.27178 -2.37994 -9.29007 -9.69375 8.64084 13.8739 -0.02255 -3.92085 3.40233 6.46366
0.00046 0.57925 0.00122 192.10295 0 -6.57176 8.37585 6.91041 -4.60104 -31.91167 6.46676 4.12124 25.63162 -21.1879 8.46299 11.23189 81.72689 0.70946 -2.52295 26.29613 6.0757 -12.69902 9.29279 -80.84214 -1.28931 1.37454 -5.89106 6.78415 -6.87163 -5.73998 -12.25103 -2.40499 -9.29601 -9.66177 8.59115 13.64564 -0.0605 -3.92458 3.43428 6.65494
0.0006 0.57925 0.00159 192.17138 0 -6.53182 8.35025 6.88087 -4.61228 -31.92512 6.46111 4.07914 25.6259 -21.2063 8.40083 11.20793 81.73537 0.72116 -2.49421 26.33001 6.05045 -12.71589 9.30762 -80.85472 -1.29078 1.38346 -5.90195 6.71671 -6.91043 -5.73438 -12.23515 -2.4236 -9.29977 -9.61274 8.53065 13.44556 -0.11757 -3.91867 3.46007 6.79663
0.00084 0.57926 0.00223 192.32232 0 -6.47204 8.31594 6.84003 -4.66142 -31.96061 6.50288 4.03967 25.65348 -21.29642 8.30076 11.17964 81.77679 0.72737 -2.46655 26.40082 5.95391 -12.76193 9.33065 -80.86103 -1.28961 1.40133 -5.93885 6.61443 -7.01529 -5.69262 -12.23136 -2.42414 -9.29556 -9.51514 8.44029 13.32617 -0.2306 -3.88514 3.46924 6.79885
0.00112 0.57929 0.00297 192.50349 0 -6.40579 8.27776 6.79458 -4.72392 -32.00753 6.56538 4.00488 25.69671 -21.41725 8.19033 11.15022 81.8281 0.72719 -2.44042 26.48878 5.82731 -12.82095 9.35638 -80.86558 -1.28754 1.4228 -5.98412 6.49943 -7.14346 -5.63943 -12.23272 -2.41823 -9.28964 -9.40056 8.33889 13.23467 -0.36241 -3.84203 3.47215 6.75154
0.00139 0.57931 0.00368 192.67138 0 -6.34332 8.24081 6.75075 -4.77994 -32.05236 6.62187 3.97157 25.73586 -21.52839 8.08857 11.12164 81.87223 0.72446 -2.41522 26.57244 5.71047 -12.87753 9.38063 -80.87163 -1.28595 1.44297 -6.02463 6.39024 -7.26064 -5.59306 -12.2326 -2.41543 -9.28559 -9.29454 8.2424 13.12829 -0.48381 -3.80394 3.47765 6.72849
0.00164 0.57932 0.00435 192.83811 0 -6.27712 8.20653 6.70907 -4.83807 -32.08265 6.66305 3.92169 25.76046 -21.61991 7.96971 11.09134 81.92751 0.74425 -2.38367 26.64004 5.61131 -12.92078 9.40613 -80.87483 -1.28403 1.46164 -6.0699 6.28087 -7.38061 -5.53892 -12.22887 -2.41183 -9.27635 -9.18475 8.14639 13.03082 -0.6134 -3.76305 3.48413 6.69786
0.00193 0.57935 0.00512 193.01345 0 -6.21742 8.16525 6.66167 -4.89447 -32.14775 6.74221 3.90912 25.82124 -21.76158 7.88448 11.06477 81.96214 0.71621 -2.36509 26.74678 5.46666 -12.99328 9.42947 -80.8834 -1.28259 1.48441 -6.10634 6.16893 -7.49888 -5.49941 -12.23385 -2.40842 -9.27824 -9.07904 8.04677 12.92191 -0.73001 -3.72568 3.48722 6.67151
0.00232 0.57941 0.00615 193.21323 0 -6.17482 8.10949 6.60082 -4.94739 -32.29044 6.91079 3.98388 25.96011 -22.01691 7.89065 11.04529 81.93526 0.55267 -2.38689 26.9431 5.21733 -13.15699 9.4477 -80.90846 -1.28258 1.51662 -6.12332 6.05256 -7.61863 -5.49407 -12.2617 -2.40655 -9.30534 -8.98638 7.93968 12.77059 -0.80964 -3.70072 3.48146 6.66707
0.00276 0.57948 0.00729 193.41879 0 -6.13945 8.04582 6.53412 -4.99739 -32.47048 7.11857 4.09874 26.13844 -22.32455 7.93184 11.03025 81.88751 0.34223 -2.42061 27.18054 4.92105 -13.34708 9.46336 -80.93874 -1.28306 1.55297 -6.12937 5.93418 -7.73334 -5.5061 -12.29803 -2.40515 -9.34494 -8.89878 7.82941 12.60777 -0.87498 -3.67958 3.47271 6.6691
0.00318 0.57954 0.00839 193.6169 0 -6.1023 7.98351 6.46935 -5.0456 -32.64406 7.3155 4.20473 26.31021 -22.62001 7.95954 11.01551 81.85086 0.15642 -2.4458 27.40895 4.637 -13.51625 9.47927 -80.9658 -1.28338 1.58819 -6.13641 5.81697 -7.84299 -5.51537 -12.33051 -2.40398 -9.38259 -8.8105 7.72069 12.45248 -0.94449 -3.65644 3.46601 6.66945
0.00356 0.5796 0.00946 193.83788 0 -6.05847 7.93154 6.40762 -5.10694 -32.77467 7.48475 4.27134 26.43354 -22.86895 7.97634 10.99102 81.80833 -0.04396 -2.48481 27.59854 4.38909 -13.72384 9.4993 -80.99636 -1.28349 1.62063 -6.16239 5.69805 -7.98583 -5.50023 -12.36351 -2.40094 -9.40398 -8.71507 7.61102 12.2874 -1.02415 -3.63402 3.45614 6.66253
0.00404 0.57966 0.0106 194.01038 0 -6.0305 7.85493 6.33808 -5.14067 -33.00222 7.71946 4.42948 26.66814 -23.22511 8.02466 10.98781 81.77222 -0.22462 -2.49706 27.87682 4.05673 -13.85717 9.50991 -81.02089 -1.28409 1.65947 -6.1439 5.58261 -8.05636 -5.54318 -12.39695 -2.40173 -9.4628 -8.63563 7.50288 12.1409 -1.07943 -3.61121 3.45227 6.67322
0.00473 0.5797 0.0119 194.06209 0 -6.04366 7.7228 6.24987 -5.09321 -33.49877 8.13557 4.82996 27.19015 -23.87849 8.14836 11.04309 81.76543 -0.34332 -2.43949 28.40426 3.48964 -13.7819 9.4966 -81.0275 -1.28645 1.71745 -6.0241 5.476 -7.94175 -5.71791 -12.43338 -2.41509 -9.61736 -8.6021 7.39858 12.03834 -1.06722 -3.58586 3.46573 6.72874
0.00552 0.57974 0.01326 194.06135 0 -6.07294 7.56402 6.15391 -5.01877 -34.08924 8.61397 5.32107 27.82463 -24.63478 8.30307 11.1195 81.76467 -0.43996 -2.35356 29.01651 2.8421 -13.63043 9.47347 -81.02787 -1.28918 1.78115 -5.85585 5.37361 -7.75144 -5.95572 -12.46954 -2.43193 -9.81014 -8.58417 7.29635 11.9572 -1.03134 -3.56018 3.48537 6.80241
0.00629 0.57978 0.01457 194.07577 0 -6.09524 7.41071 6.06035 -4.96069 -34.63023 9.05732 5.77123 28.41421 -25.33524 8.4458 11.18574 81.75669 -0.54387 -2.27562 29.58079 2.23966 -13.51186 9.45402 -81.03107 -1.29141 1.84069 -5.69808 5.26979 -7.5876 -6.17995 -12.50283 -2.44578 -9.98829 -8.55702 7.19382 11.87208 -1.0089 -3.53499 3.50223 6.86946
0.00697 0.57981 0.01596 194.12956 0 -6.11556 7.28582 5.97063 -4.88635 -35.20266 9.53141 6.22247 28.97887 -26.07762 8.58135 11.25454 81.76644 -0.6604 -2.21752 30.18742 1.59813 -13.40138 9.43832 -81.03439 -1.29507 1.90733 -5.59077 5.1625 -7.45916 -6.33867 -12.5477 -2.46554 -10.15485 -8.53839 7.08789 11.75997 -0.97558 -3.50829 3.51892 6.92982
0.00786 0.57986 0.0172 194.08566 0 -6.1447 7.09468 5.872 -4.83808 -35.72965 9.95461 6.6916 29.62174 -26.75416 8.73812 11.32292 81.74151 -0.74562 -2.11279 30.72404 1.02128 -13.2558 9.41184 -81.03601 -1.29582 1.96 -5.36433 5.06513 -7.23646 -6.65163 -12.56997 -2.47386 -10.35503 -8.50646 6.99028 11.71219 -0.95831 -3.48487 3.53741 7.00834
0.00926 0.57995 0.01799 193.81139 0 -6.18582 6.73439 5.74326 -4.88047 -36.12306 10.2319 7.19516 30.45188 -27.24271 8.95142 11.38483 81.61475 -0.74195 -1.8716 31.05839 0.62822 -13.02992 9.36376 -81.03364 -1.28846 1.97684 -4.84351 4.98023 -6.79544 -7.34921 -12.51544 -2.44919 -10.63384 -8.42717 6.90933 11.812 -1.00164 -3.46822 3.55984 7.13293
0.01087 0.58005 0.01862 193.43553 0 -6.23674 6.30723 5.60716 -4.94771 -36.46453 10.45387 7.71207 31.35689 -27.65758 9.18387 11.44524 81.45386 -0.70841 -1.58656 31.31696 0.30599 -12.77148 9.30407 -81.02986 -1.27814 1.97858 -4.20027 4.90801 -6.25868 -8.20464 -12.44083 -2.41288 -10.94596 -8.33517 6.83784 11.98036 -1.06026 -3.45522 3.58382 7.27522
0.0124 0.58015 0.01931 193.08882 0 -6.28874 5.90566 5.4794 -4.99572 -36.81989 10.69441 8.21789 32.22812 -28.0935 9.40366 11.5068 81.31167 -0.69391 -1.33185 31.60226 -0.03891 -12.52932 9.24599 -81.02727 -1.26913 1.98456 -3.59829 4.83883 -5.7493 -9.00462 -12.38491 -2.38242 -11.24604 -8.25347 6.76576 12.13382 -1.10485 -3.4422 3.60676 7.40896
0.01388 0.58023 0.02006 192.81247 0 -6.31815 5.52252 5.33057 -5.07653 -37.21963 10.96454 8.74795 33.1021 -28.58568 9.64096 11.56849 81.15609 -0.65703 -1.03458 31.92304 -0.42683 -12.27879 9.20322 -81.02227 -1.26025 2.00199 -3.05541 4.73172 -5.3018 -9.73785 -12.2887 -2.3502 -11.53462 -8.15336 6.67788 12.21995 -1.17769 -3.42263 3.63127 7.54488
0.01551 0.58036 0.02065 192.36572 0 -6.39646 5.08657 5.22361 -5.09499 -37.51327 11.15953 9.22969 33.98688 -28.94164 9.84631 11.62756 81.02038 -0.65813 -0.81299 32.15088 -0.70727 -12.03829 9.12569 -81.02188 -1.25043 1.99169 -2.36083 4.7077 -4.70812 -10.64704 -12.27155 -2.31821 -11.85426 -8.08821 6.62542 12.46162 -1.19667 -3.41711 3.6529 7.68097
0.01754 0.58061 0.02085 191.4781 0 -6.60924 4.51309 5.23744 -4.93821 -37.52748 11.15624 9.57234 34.8804 -28.94065 9.95312 11.69418 80.94658 -0.78723 -0.83619 32.13999 -0.70767 -11.83934 8.95744 -81.03592 -1.23849 1.91028 -1.28107 4.89969 -3.70026 -11.99837 -12.4773 -2.29521 -12.25367 -8.12418 6.66596 13.12112 -1.05439 -3.45351 3.66515 7.80678
0.0197 0.58089 0.02087 190.42286 0 -6.87023 3.89137 5.29314 -4.71781 -37.43651 11.07978 9.86574 35.78187 -28.80448 10.02652 11.75534 80.89421 -0.95278 -0.93247 32.03824 -0.60205 -11.65087 8.75431 -81.05439 -1.22575 1.80111 -0.05398 5.17625 -2.55813 -13.52004 -12.76263 -2.27202 -12.68231 -8.1956 6.74221 13.93293 -0.85916 -3.50319 3.67459 7.93321
0.02178 0.58115 0.02096 189.44023 0 -7.10814 3.2959 5.3274 -4.52412 -37.39207 11.03924 10.18294 36.68131 -28.72873 10.1206 11.80954 80.8328 -1.09134 -0.97904 31.97761 -0.54488 -11.45416 8.56552 -81.07001 -1.21352 1.70344 1.10989 5.42147 -1.49657 -14.96927 -13.01266 -2.24499 -13.09635 -8.24949 6.80385 14.67255 -0.69407 -3.54415 3.68603 8.06357
0.02395 0.58144 0.02113 188.46503 0 -7.35228 2.67583 5.37128 -4.33883 -37.34936 10.98529 10.49524 37.57791 -28.65425 10.1982 11.90391 80.76711 -1.27271 -1.09395 31.9136 -0.48405 -11.27107 8.38237 -81.08926 -1.20051 1.60994 2.26876 5.63929 -0.33754 -16.41107 -13.26136 -2.2332 -13.51835 -8.30814 6.85931 15.43036 -0.50385 -3.59656 3.6946 8.17702
0.02595 0.58169 0.02107 187.44097 0 -7.59361 2.10139 5.40556 -4.12281 -37.28107 10.94295 10.80517 38.47985 -28.54662 10.29437 11.91289 80.71607 -1.37415 -1.08415 31.83792 -0.40674 -11.06239 8.17976 -81.10184 -1.18904 1.50136 3.46334 5.93148 0.63461 -17.89667 -13.52821 -2.19095 -13.92873 -8.36645 6.93563 16.18149 -0.35317 -3.62826 3.70833 8.32529
0.02761 0.58184 0.02041 186.27994 0 -7.82482 1.6233 5.39935 -3.81825 -37.14801 10.94742 11.12629 39.40626 -28.37552 10.51503 11.69189 80.69879 -1.24465 -0.7156 31.73656 -0.30843 -10.78237 7.92907 -81.09636 -1.18143 1.35827 4.78878 6.43081 1.18398 -19.54675 -13.85776 -2.05461 -14.3127 -8.40668 7.06385 16.91198 -0.32551 -3.59862 3.73807 8.5716
0.02907 0.58195 0.01952 185.08414 0 -8.04948 1.20128 5.38258 -3.48817 -36.99687 10.96681 11.4456 40.33497 -28.17725 10.74358 11.38483 80.69606 -1.03399 -0.21926 31.63006 -0.19762 -10.47632 7.66098 -81.0838 -1.17554 1.20126 6.13142 6.99783 1.51849 -21.21827 -14.19661 -1.88964 -14.68129 -8.44689 7.21115 17.62398 -0.33972 -3.54754 3.77291 8.85206
0.03051 0.58207 0.01873 183.93298 0 -8.27125 0.78061 5.37334 -3.18263 -36.86723 10.9819 11.76191 41.25484 -27.99481 10.92537 11.11358 80.68763 -0.86137 0.22147 31.53634 -0.0941 -10.18078 7.40232 -81.07344 -1.16924 1.05008 7.42117 7.51901 1.86575 -22.82331 -14.51067 -1.74432 -15.04846 -8.49286 7.34781 18.32059 -0.33347 -3.50718 3.80464 9.11599
0.0324 0.58222 0.01794 182.65399 0 -8.52056 0.24328 5.35477 -2.82135 -36.67755 10.98456 12.09261 42.20884 -27.79204 11.28706 10.85396 80.67563 -0.68463 0.65197 31.39459 0.01915 -9.89006 7.13443 -81.0673 -1.16125 0.8988 8.90762 8.10669 2.56839 -24.67405 -14.91563 -1.57065 -15.45259 -8.51619 7.4944 19.12141 -0.32937 -3.46426 3.83948 9.3859
